<svg
   xmlns:dc="http://purl.org/dc/elements/1.1/"
   xmlns:cc="http://creativecommons.org/ns#"
   xmlns:rdf="http://www.w3.org/1999/02/22-rdf-syntax-ns#"
   xmlns:svg="http://www.w3.org/2000/svg"
   xmlns="http://www.w3.org/2000/svg"
   xmlns:sodipodi="http://sodipodi.sourceforge.net/DTD/sodipodi-0.dtd"
   xmlns:inkscape="http://www.inkscape.org/namespaces/inkscape"
   viewBox="0 0 897.36 984.29"
   id="svg3794"
   version="1.1"
   inkscape:version="0.48.4 r9939"
   sodipodi:docname="New document 3">
  <defs
     id="defs3796" />
  <sodipodi:namedview
     id="base"
     pagecolor="#ffffff"
     bordercolor="#666666"
     borderopacity="1.0"
     inkscape:pageopacity="0.0"
     inkscape:pageshadow="2"
     inkscape:zoom="0.12374369"
     inkscape:cx="267.73707"
     inkscape:cy="365.42363"
     inkscape:document-units="px"
     inkscape:current-layer="layer1"
     showgrid="false"
     inkscape:window-width="463"
     inkscape:window-height="483"
     inkscape:window-x="52"
     inkscape:window-y="52"
     inkscape:window-maximized="0" />
  <metadata
     id="metadata3799">
    <rdf:RDF>
      <cc:Work
         rdf:about="">
        <dc:format>image/svg+xml</dc:format>
        <dc:type
           rdf:resource="http://purl.org/dc/dcmitype/StillImage" />
        <dc:title></dc:title>
      </cc:Work>
    </rdf:RDF>
  </metadata>
  <g
     inkscape:label="Layer 1"
     inkscape:groupmode="layer"
     id="layer1">
    <g
       id="g5434"
       transform="matrix(0.46759554,0,0,0.46759554,365.10997,193.82382)"
       inkscape:export-filename="C:\Users\Assem_2\Dropbox\The Comet\UFO_set.png"
       inkscape:export-xdpi="90"
       inkscape:export-ydpi="90">
      <path
         sodipodi:type="arc"
         style="fill:#ff6600;fill-opacity:1;stroke:#000000;stroke-width:10"
         id="path5385"
         sodipodi:cx="-353.66415"
         sodipodi:cy="1076.7528"
         sodipodi:rx="182.92973"
         sodipodi:ry="89.432312"
         d="m -170.73442,1076.7528 c 0,49.3921 -81.90043,89.4323 -182.92973,89.4323 -101.02931,0 -182.92974,-40.0402 -182.92974,-89.4323 0,-49.3921 81.90043,-89.4323 182.92974,-89.4323 101.0293,0 182.92973,40.0402 182.92973,89.4323 z"
         transform="matrix(-0.93030476,0.02368877,0.01679792,1.3119349,79.73338,-389.95498)" />
      <path
         sodipodi:type="arc"
         style="fill:#ff6600;fill-opacity:1;stroke:#000000;stroke-width:10"
         id="path5383"
         sodipodi:cx="-353.66415"
         sodipodi:cy="1076.7528"
         sodipodi:rx="182.92973"
         sodipodi:ry="89.432312"
         d="m -170.73442,1076.7528 c 0,49.3921 -81.90043,89.4323 -182.92973,89.4323 -101.02931,0 -182.92974,-40.0402 -182.92974,-89.4323 0,-49.3921 81.90043,-89.4323 182.92974,-89.4323 101.0293,0 182.92973,40.0402 182.92973,89.4323 z"
         transform="matrix(0.93030476,0.02368877,-0.01679792,1.3119349,355.23286,-300.52266)" />
      <path
         transform="matrix(0.93030476,0.02368877,-0.01679792,1.3119349,-55.342763,-389.95498)"
         d="m -170.73442,1076.7528 c 0,49.3921 -81.90043,89.4323 -182.92973,89.4323 -101.02931,0 -182.92974,-40.0402 -182.92974,-89.4323 0,-49.3921 81.90043,-89.4323 182.92974,-89.4323 101.0293,0 182.92973,40.0402 182.92973,89.4323 z"
         sodipodi:ry="89.432312"
         sodipodi:rx="182.92973"
         sodipodi:cy="1076.7528"
         sodipodi:cx="-353.66415"
         id="path5381"
         style="fill:#ff6600;fill-opacity:1;stroke:#000000;stroke-width:10"
         sodipodi:type="arc" />
      <path
         sodipodi:type="arc"
         style="fill:#214478;fill-opacity:1;stroke:#000000;stroke-width:10"
         id="path5373"
         sodipodi:cx="67.074234"
         sodipodi:cy="593.00531"
         sodipodi:rx="416.67328"
         sodipodi:ry="276.42715"
         d="m 483.74751,593.00531 c 0,152.6665 -186.55098,276.42715 -416.673276,276.42715 -230.122294,0 -416.673274,-123.76065 -416.673274,-276.42715 0,-152.6665 186.55098,-276.42715 416.673274,-276.42715 230.122296,0 416.673276,123.76065 416.673276,276.42715 z"
         transform="matrix(1.6004586,0,0,1.1698088,-109.38209,110.68789)" />
      <path
         transform="matrix(1.6004586,0,0,1.1698088,-109.38209,110.68789)"
         d="m 483.74751,593.00531 c 0,152.6665 -186.55098,276.42715 -416.673276,276.42715 -230.122294,0 -416.673274,-123.76065 -416.673274,-276.42715 0,-152.6665 186.55098,-276.42715 416.673274,-276.42715 230.122296,0 416.673276,123.76065 416.673276,276.42715 z"
         sodipodi:ry="276.42715"
         sodipodi:rx="416.67328"
         sodipodi:cy="593.00531"
         sodipodi:cx="67.074234"
         id="path5432"
         style="fill:none;stroke:#000000;stroke-width:10"
         sodipodi:type="arc" />
      <path
         transform="matrix(0.99899905,0,0,1.1749618,-52.779227,-144.40433)"
         d="m 483.74751,593.00531 c 0,152.6665 -186.55098,276.42715 -416.673276,276.42715 -230.122294,0 -416.673274,-123.76065 -416.673274,-276.42715 0,-152.6665 186.55098,-276.42715 416.673274,-276.42715 230.122296,0 416.673276,123.76065 416.673276,276.42715 z"
         sodipodi:ry="276.42715"
         sodipodi:rx="416.67328"
         sodipodi:cy="593.00531"
         sodipodi:cx="67.074234"
         id="path5339"
         style="fill:#6f6f91;fill-opacity:1;stroke:#000000;stroke-width:10"
         sodipodi:type="arc" />
      <path
         inkscape:connector-curvature="0"
         id="path5356"
         d="m -396.27619,498.33039 c -3.77224,17.57519 -5.74425,35.60021 -5.74425,54.01152 0,179.37731 186.34724,324.8035 416.239202,324.8035 229.891958,0 416.270418,-145.42619 416.270418,-324.8035 0,-18.41131 -1.972,-36.43633 -5.74424,-54.01152 -32.97989,153.65599 -204.23037,270.75526 -410.526178,270.75526 -206.295812,0 -377.515072,-117.09927 -410.494952,-270.75526 z"
         style="fill:#374845;fill-opacity:1;stroke:#000000;stroke-width:10" />
      <path
         transform="matrix(1.004342,0,0,0.75868408,171.40515,85.859545)"
         d="m -8.1302185,279.99219 c 0,40.41172 -65.5203425,73.17189 -146.3437815,73.17189 -80.82344,0 -146.34378,-32.76017 -146.34378,-73.17189 0,-40.41172 65.52034,-73.17189 146.34378,-73.17189 80.823439,0 146.3437815,32.76017 146.3437815,73.17189 z"
         sodipodi:ry="73.17189"
         sodipodi:rx="146.34378"
         sodipodi:cy="279.99219"
         sodipodi:cx="-154.474"
         id="path5359"
         style="fill:#2ca089;fill-opacity:1;stroke:#000000;stroke-width:10"
         sodipodi:type="arc" />
      <g
         transform="translate(6.0976667,0)"
         id="g5387">
        <path
           transform="matrix(1.0494316,0,0,1.0494316,238.4969,63.535177)"
           sodipodi:type="arc"
           style="fill:#1c2422;fill-opacity:1;stroke:#000000;stroke-width:10"
           id="path5365"
           sodipodi:cx="-219.51569"
           sodipodi:cy="523.8985"
           sodipodi:rx="77.237"
           sodipodi:ry="77.237"
           d="m -142.27869,523.8985 c 0,42.65682 -34.58018,77.237 -77.237,77.237 -42.65681,0 -77.237,-34.58018 -77.237,-77.237 0,-42.65682 34.58019,-77.237 77.237,-77.237 42.65682,0 77.237,34.58018 77.237,77.237 z" />
        <path
           transform="matrix(0.72630841,0,0,0.72630841,167.56629,232.81893)"
           d="m -142.27869,523.8985 c 0,42.65682 -34.58018,77.237 -77.237,77.237 -42.65681,0 -77.237,-34.58018 -77.237,-77.237 0,-42.65682 34.58019,-77.237 77.237,-77.237 42.65682,0 77.237,34.58018 77.237,77.237 z"
           sodipodi:ry="77.237"
           sodipodi:rx="77.237"
           sodipodi:cy="523.8985"
           sodipodi:cx="-219.51569"
           id="path5367"
           style="fill:#008066;fill-opacity:1;stroke:#000000;stroke-width:10"
           sodipodi:type="arc" />
      </g>
      <g
         transform="matrix(0.81158721,0,0,0.81158721,70.095109,97.177344)"
         id="g5391">
        <path
           d="m -142.27869,523.8985 c 0,42.65682 -34.58018,77.237 -77.237,77.237 -42.65681,0 -77.237,-34.58018 -77.237,-77.237 0,-42.65682 34.58019,-77.237 77.237,-77.237 42.65682,0 77.237,34.58018 77.237,77.237 z"
           sodipodi:ry="77.237"
           sodipodi:rx="77.237"
           sodipodi:cy="523.8985"
           sodipodi:cx="-219.51569"
           id="path5369"
           style="fill:#1c2422;fill-opacity:1;stroke:#000000;stroke-width:10"
           sodipodi:type="arc"
           transform="matrix(1.0494316,0,0,1.0494316,510.85895,-34.027347)" />
        <path
           sodipodi:type="arc"
           style="fill:#008066;fill-opacity:1;stroke:#000000;stroke-width:10"
           id="path5371"
           sodipodi:cx="-219.51569"
           sodipodi:cy="523.8985"
           sodipodi:rx="77.237"
           sodipodi:ry="77.237"
           d="m -142.27869,523.8985 c 0,42.65682 -34.58018,77.237 -77.237,77.237 -42.65681,0 -77.237,-34.58018 -77.237,-77.237 0,-42.65682 34.58019,-77.237 77.237,-77.237 42.65682,0 77.237,34.58018 77.237,77.237 z"
           transform="matrix(0.72630841,0,0,0.72630841,439.92834,135.25641)" />
      </g>
      <path
         id="path5375"
         d="m -660.03125,751.53125 c -5.83055,17.1978 -8.875,34.87676 -8.875,52.875 0,178.59062 298.57379,323.34375 666.875,323.34375 368.30121,0 666.875,-144.75313 666.875,-323.34375 0,-17.99824 -3.04445,-35.6772 -8.875,-52.875 -52.0217,153.45165 -326.81392,270.53125 -658,270.53125 -331.18608,0 -605.9783,-117.0796 -658,-270.53125 z"
         style="fill:#1c1f24;fill-opacity:1;stroke:#000000;stroke-width:10"
         inkscape:connector-curvature="0" />
      <g
         id="g5412"
         transform="matrix(0.81158721,0,0,0.81158721,-490.88941,97.177344)">
        <path
           transform="matrix(1.0494316,0,0,1.0494316,510.85895,-34.027347)"
           sodipodi:type="arc"
           style="fill:#1c2422;fill-opacity:1;stroke:#000000;stroke-width:10"
           id="path5414"
           sodipodi:cx="-219.51569"
           sodipodi:cy="523.8985"
           sodipodi:rx="77.237"
           sodipodi:ry="77.237"
           d="m -142.27869,523.8985 c 0,42.65682 -34.58018,77.237 -77.237,77.237 -42.65681,0 -77.237,-34.58018 -77.237,-77.237 0,-42.65682 34.58019,-77.237 77.237,-77.237 42.65682,0 77.237,34.58018 77.237,77.237 z" />
        <path
           transform="matrix(0.72630841,0,0,0.72630841,439.92834,135.25641)"
           d="m -142.27869,523.8985 c 0,42.65682 -34.58018,77.237 -77.237,77.237 -42.65681,0 -77.237,-34.58018 -77.237,-77.237 0,-42.65682 34.58019,-77.237 77.237,-77.237 42.65682,0 77.237,34.58018 77.237,77.237 z"
           sodipodi:ry="77.237"
           sodipodi:rx="77.237"
           sodipodi:cy="523.8985"
           sodipodi:cx="-219.51569"
           id="path5416"
           style="fill:#008066;fill-opacity:1;stroke:#000000;stroke-width:10"
           sodipodi:type="arc" />
      </g>
      <path
         sodipodi:type="arc"
         style="fill:#0b0b28;fill-opacity:1;stroke:#000000;stroke-width:10"
         id="path5430"
         sodipodi:cx="-154.474"
         sodipodi:cy="279.99219"
         sodipodi:rx="146.34378"
         sodipodi:ry="73.17189"
         d="m -8.1302185,279.99219 c 0,40.41172 -65.5203425,73.17189 -146.3437815,73.17189 -80.82344,0 -146.34378,-32.76017 -146.34378,-73.17189 0,-40.41172 65.52034,-73.17189 146.34378,-73.17189 80.823439,0 146.3437815,32.76017 146.3437815,73.17189 z"
         transform="matrix(0.42254203,0,0,0.31918999,81.532182,208.91446)" />
      <path
         inkscape:connector-curvature="0"
         id="path5420"
         d="m -48.228485,45.658412 14.835357,29.575306 -16.983569,36.596162 45.5133899,3.85 -44.8952409,42.49521 34.062545,0.79365 30.849767,107.44944 0,27.08565"
         style="fill:none;stroke:#000000;stroke-width:6;stroke-linecap:butt;stroke-linejoin:miter;stroke-opacity:1" />
      <path
         transform="matrix(0.96116888,-0.27596081,0.27596081,0.96116888,-66.11949,-1.5591666)"
         d="m 28.744634,26.897348 c 0,16.668985 -13.512882,30.181866 -30.1818658,30.181866 -16.6689842,0 -30.1818652,-13.512881 -30.1818652,-30.181866 0,-16.668984 13.512881,-30.1818653 30.1818652,-30.1818653 16.6689838,0 30.1818658,13.5128813 30.1818658,30.1818653 z"
         sodipodi:ry="30.181866"
         sodipodi:rx="30.181866"
         sodipodi:cy="26.897348"
         sodipodi:cx="-1.4372318"
         id="path5422"
         style="fill:#5f5fd3;fill-opacity:1;stroke:#000000;stroke-width:10"
         sodipodi:type="arc" />
    </g>
  </g>
</svg>